<?xml version="1.0" standalone="no"?><!DOCTYPE svg PUBLIC "-//W3C//DTD SVG 1.1//EN" "http://www.w3.org/Graphics/SVG/1.1/DTD/svg11.dtd"><svg t="1693624778591" class="icon" viewBox="0 0 1024 1024" version="1.1" xmlns="http://www.w3.org/2000/svg" p-id="2357" xmlns:xlink="http://www.w3.org/1999/xlink" width="200" height="200"><path d="M426.542817 0.599756h170.530695C710.527404-1.899228 833.477436 32.886635 911.045912 112.954095c80.167419 77.568476 114.853323 200.518508 112.454298 313.972399v170.530696c2.399025 113.453892-32.286878 236.403924-112.454298 313.972399-77.568476 80.167419-200.518508 114.853323-313.9724 112.454298H426.542817c-113.453892 2.399025-236.403924-32.286878-313.9724-112.454298C32.402998 833.961073-2.282906 711.011041 0.116119 597.557149V427.026454C-2.282906 313.472603 32.402998 190.52257 112.570417 112.954095 190.138893 32.886635 313.088925-1.899228 426.542817 0.599756z" fill="#F6416C" p-id="2358"></path><path d="M112.570417 112.954095C36.90117 186.224317 1.715469 299.878128 0.116119 407.834254c137.943939 0 249.79848-111.954501 249.798481-249.89844 0-42.782613-10.795613-83.066241-29.687935-118.251942-40.583507 17.892728-77.568476 42.182857-107.656248 73.270223z" fill="#FFFFFF" opacity=".5" p-id="2359"></path><path d="M755.509123 560.872058L600.072293 727.904175C567.185659 763.289794 523.80329 772.685976 511.808165 772.685976c-9.796019 0-55.377494-9.396181-88.264129-44.781801L268.107206 560.872058c-65.773269-70.671279-65.773269-185.324683 0-256.095921 65.773269-70.671279 172.429923-70.671279 238.203193 0l5.497766 5.897603 5.497765-5.897603c65.773269-70.671279 172.429923-70.671279 238.203193 0 65.773269 70.771238 65.773269 185.424642 0 256.095921z m-167.331995-64.873635h-60.775301v-65.973188c0-8.496547-6.897197-15.393744-15.393744-15.393744h-0.199918c-8.496547 0-15.393744 6.897197-15.393744 15.393744v65.973188h-60.775301c-8.996344 0-16.293378 7.297034-16.293378 16.293378s7.297034 16.293378 16.293378 16.293379h60.775301v65.973188c0 8.496547 6.897197 15.393744 15.393744 15.393744h0.199918c8.496547 0 15.393744-6.897197 15.393744-15.393744v-65.973188h60.775301c8.996344 0 16.293378-7.297034 16.293378-16.293379s-7.297034-16.293378-16.293378-16.293378z" fill="#FFFFFF" p-id="2360"></path><path d="M660.847594 619.048415c-83.965876 0-152.038211 68.072335-152.038211 152.038211v1.399431c1.199513 0.099959 2.199106 0.199919 2.998782 0.199919 11.995125 0 55.377494-9.396181 88.264128-44.781801l97.260473-104.457548c-11.695247-2.898822-23.890291-4.398213-36.485172-4.398212z" fill="#F6416C" opacity=".5" p-id="2361"></path></svg>