<?xml version="1.0" standalone="no"?><!DOCTYPE svg PUBLIC "-//W3C//DTD SVG 1.1//EN" "http://www.w3.org/Graphics/SVG/1.1/DTD/svg11.dtd"><svg t="1693624772539" class="icon" viewBox="0 0 1024 1024" version="1.1" xmlns="http://www.w3.org/2000/svg" p-id="2207" xmlns:xlink="http://www.w3.org/1999/xlink" width="200" height="200"><path d="M426.542817 0.599756h170.530695C710.527404-1.899228 833.477436 32.886635 911.045912 112.954095c80.167419 77.568476 114.853323 200.518508 112.454298 313.972399v170.530696c2.399025 113.453892-32.286878 236.403924-112.454298 313.972399-77.568476 80.167419-200.518508 114.853323-313.9724 112.454298H426.542817c-113.453892 2.399025-236.403924-32.286878-313.9724-112.454298C32.402998 833.961073-2.282906 711.011041 0.116119 597.557149V427.026454C-2.282906 313.472603 32.402998 190.52257 112.570417 112.954095 190.138893 32.886635 313.088925-1.899228 426.542817 0.599756z" fill="#CA26FF" p-id="2208"></path><path d="M112.570417 112.954095C36.90117 186.224317 1.715469 299.878128 0.116119 407.834254c137.943939 0 249.79848-111.954501 249.798481-249.89844 0-42.782613-10.795613-83.066241-29.687935-118.251942-40.583507 17.892728-77.568476 42.182857-107.656248 73.270223z" fill="#FFFFFF" opacity=".5" p-id="2209"></path><path d="M510.808571 209.414892l-45.981313 58.876073h93.961813zM766.104817 432.124382c-14.39415-29.987813-33.786269-47.380744-56.577007-68.072335-6.297441-5.597725-44.681841-39.98375-93.462016-59.375869-76.568882-30.087772-185.924439-25.789519-272.489259 37.184888-97.66031 71.171076-113.953689 179.32712-116.752551 199.318995 21.691185-12.594881 46.181232-19.592038 71.271035-20.291753 25.389681 0 50.279566 6.797238 72.170669 19.691997 16.193419-10.695653 34.585944-17.792769 53.778145-20.89151 20.591631-3.1987 41.5831-1.799269 61.574975 3.998375l-6.497359 203.41733c4.997969-6.897197-8.596506 14.993906-15.693622 19.691997-13.394556 8.596506-40.283628 1.899228-48.380338-13.094678-4.997969-8.596506 0.599756-13.394556-4.298253-26.189356-3.398619-9.696059-12.894759-25.789519-27.488829-26.289316-15.893541-0.599756-26.189356 18.192606-27.488828 19.991875-2.998781 6.097522-4.698091 12.694841-4.997969 19.392119-0.599756 23.090616 19.092241 75.26941 69.071929 90.663154 35.885416 10.295816 74.469735 0.099959 100.459172-26.689154 9.696059-10.395775 17.093053-22.690778 21.491266-36.185294V525.28652c16.493297-5.597725 33.886228-7.796831 51.27916-6.597319 23.090616 1.699309 45.281597 9.296222 64.473798 22.190982 42.682654-25.5896 95.961001-26.389275 139.34337-1.999188-5.697684-8.596506-1.199513-45.181638-30.787488-106.756613z m-399.937463-1.699309l-19.991875-8.996344s68.971969-66.972782 83.965875-81.966688l-63.974 90.963032z" fill="#FFFFFF" p-id="2210"></path><path d="M766.104817 432.124382c-14.39415-29.987813-33.786269-47.380744-56.577007-68.072335-5.697684-5.197888-38.48436-34.485985-81.466891-54.277941-8.396588 20.191794-12.994719 42.382775-12.994719 65.67331 0 63.374244 34.286066 118.751739 85.365307 148.539632 32.386838-6.797238 66.672904-1.799269 96.360838 14.793988-5.597725-8.496547-1.099553-45.081679-30.687528-106.656654z" fill="#CA26FF" opacity=".5" p-id="2211"></path></svg>