<?xml version="1.0" standalone="no"?><!DOCTYPE svg PUBLIC "-//W3C//DTD SVG 1.1//EN" "http://www.w3.org/Graphics/SVG/1.1/DTD/svg11.dtd"><svg t="1693624766462" class="icon" viewBox="0 0 1024 1024" version="1.1" xmlns="http://www.w3.org/2000/svg" p-id="2057" xmlns:xlink="http://www.w3.org/1999/xlink" width="200" height="200"><path d="M426.542817 0.599756h170.530695C710.527404-1.899228 833.477436 32.886635 911.045912 112.954095c80.167419 77.568476 114.853323 200.518508 112.454298 313.972399v170.530696c2.399025 113.453892-32.286878 236.403924-112.454298 313.972399-77.568476 80.167419-200.518508 114.853323-313.9724 112.454298H426.542817c-113.453892 2.399025-236.403924-32.286878-313.9724-112.454298C32.402998 833.961073-2.282906 711.011041 0.116119 597.557149V427.026454C-2.282906 313.472603 32.402998 190.52257 112.570417 112.954095 190.138893 32.886635 313.088925-1.899228 426.542817 0.599756z" fill="#1698F9" p-id="2058"></path><path d="M112.570417 112.954095C36.90117 186.224317 1.715469 299.878128 0.116119 407.834254c137.943939 0 249.79848-111.954501 249.798481-249.89844 0-42.782613-10.795613-83.066241-29.687935-118.251942-40.583507 17.892728-77.568476 42.182857-107.656248 73.270223z" fill="#FFFFFF" opacity=".5" p-id="2059"></path><path d="M761.506685 447.518126l-121.65056 51.978875-69.771644-100.85901c25.789519-18.292566 42.682654-48.380338 42.682653-82.466485 0-55.777332-45.181638-100.95897-100.958969-100.95897s-100.95897 45.181638-100.95897 100.95897c0 32.786675 15.593663 61.974813 39.883791 80.367338l-72.970345 106.056898L262.909319 448.717638c-16.293378-7.596913-34.386025 6.3974-31.087366 23.990251l51.479078 248.798886c1.999188 10.395775 11.095491 17.992688 21.691185 17.992688h400.637178c10.295816 0 19.1922-7.097116 21.491266-17.093053L791.594458 472.807848c4.198294-17.59285-13.494516-32.386838-30.087773-25.289722zM568.085293 592.959018l-19.092241 13.894353c-3.598538 2.598944-5.097928 7.197075-3.698497 11.395369l7.297035 22.490859c2.998781 9.396181-7.696872 17.193013-15.693622 11.395369l-19.092241-13.994312c-3.598538-2.598944-8.396588-2.598944-11.995125 0l-19.092241 13.894353c-7.99675 5.797644-18.692403-1.999188-15.693622-11.395369l7.297035-22.49086c1.399431-4.198294-0.099959-8.796425-3.698497-11.395368l-19.092241-13.894354c-7.99675-5.797644-3.898416-18.392525 5.997562-18.392525h23.590413c4.398213 0 8.296628-2.798863 9.69606-6.997156l7.297034-22.49086c2.998781-9.396181 16.293378-9.396181 19.392119 0l7.297034 22.49086c1.399431 4.198294 5.297847 6.997156 9.69606 6.997156h23.590413c9.895978 0.099959 13.994313 12.694841 5.997562 18.492485zM693.634269 776.584391h-365.851315c-8.996344 0-16.293378 7.297034-16.293379 16.293379s7.297034 16.293378 16.293379 16.293378h365.851315c8.996344 0 16.293378-7.297034 16.293379-16.293378s-7.297034-16.293378-16.293379-16.293379z" fill="#FFFFFF" p-id="2060"></path><path d="M634.458319 732.202428c0 2.498984 0.099959 4.898009 0.199918 7.297035h70.971157c10.295816 0 19.1922-7.097116 21.491266-17.093053l32.986594-127.648123c-70.47136 6.297441-125.648935 65.473391-125.648935 137.444141zM693.634269 776.584391H641.755353c3.998375 11.595288 9.396181 22.590819 16.193419 32.586757H693.734229c8.996344 0 16.293378-7.297034 16.293378-16.293378s-7.396994-16.293378-16.393338-16.293379z" fill="#1698F9" opacity=".4" p-id="2061"></path></svg>