<?xml version="1.0" standalone="no"?><!DOCTYPE svg PUBLIC "-//W3C//DTD SVG 1.1//EN" "http://www.w3.org/Graphics/SVG/1.1/DTD/svg11.dtd"><svg t="1693624790490" class="icon" viewBox="0 0 1024 1024" version="1.1" xmlns="http://www.w3.org/2000/svg" p-id="2657" xmlns:xlink="http://www.w3.org/1999/xlink" width="200" height="200"><path d="M426.542817 0.599756h170.530695C710.527404-1.899228 833.477436 32.886635 911.045912 112.954095c80.167419 77.568476 114.853323 200.518508 112.454298 313.972399v170.530696c2.399025 113.453892-32.286878 236.403924-112.454298 313.972399-77.568476 80.167419-200.518508 114.853323-313.9724 112.454298H426.542817c-113.453892 2.399025-236.403924-32.286878-313.9724-112.454298C32.402998 833.961073-2.282906 711.011041 0.116119 597.557149V427.026454C-2.282906 313.472603 32.402998 190.52257 112.570417 112.954095 190.138893 32.886635 313.088925-1.899228 426.542817 0.599756z" fill="#10E396" p-id="2658"></path><path d="M112.570417 112.954095C36.90117 186.224317 1.715469 299.878128 0.116119 407.834254c137.943939 0 249.79848-111.954501 249.798481-249.89844 0-42.782613-10.795613-83.066241-29.687935-118.251942-40.583507 17.892728-77.568476 42.182857-107.656248 73.270223z" fill="#FFFFFF" opacity=".5" p-id="2659"></path><path d="M688.336422 399.537625c-18.792363 64.07396 22.091022 96.560757-14.793987 203.51729C631.259619 729.503525 494.815071 784.281263 379.961748 759.591297c1.399431-0.699716 2.698903-1.59935 3.798456-2.698903 9.296222-8.896384 90.863073-88.663966 104.357588-144.841135 24.889885-103.657873 62.974407-156.536383 93.561976-199.119077 5.497766-7.696872 10.795613-14.993906 15.693622-22.190982 2.099147-2.998781 2.898822-6.497359 2.798863-9.895978-1.999188 2.399025-3.898416 4.698091-5.997563 7.097116-34.086147 39.883791-101.058929 125.149139-130.646904 228.107296-23.490453 81.766769-129.947189 156.736301-140.043086 164.83301-5.197888 4.198294-12.295003 4.498172-17.692809 1.299472-1.699309-0.999594-3.1987-2.199106-4.498172-3.798456-5.397806-6.797238-4.298253-16.793175 2.498984-22.190981 7.896791-6.297441 21.991063-17.69281 38.084523-32.08696-64.473797-87.864291-82.766363-207.615624-16.993094-316.471384 37.584725-60.87526 91.162951-103.058117 167.631873-127.148326 73.969938-24.689966 178.727364-28.688341 244.500633-31.587163 17.093053 7.696872-45.281597 84.365713-48.680216 150.638779zM446.734611 572.567305c-11.995125-39.284035-17.69281-82.166607-15.393744-102.058523 0.399838-3.598538 0.799675-6.997156 1.099553-10.395775 0.299878-3.298659-2.199106-6.297441-5.497766-6.597319-3.298659-0.299878-6.297441 2.199106-6.597318 5.497766-0.299878 3.1987-0.699716 6.597319-1.099554 10.095897-2.399025 21.091428 3.598538 70.071522 16.393338 111.754582 0.799675 2.698903 2.898822-0.199919 5.597725-0.399837 0.499797 0 0.899634-0.099959 1.399431-0.299878 3.298659-0.999594 5.097928-4.398213 4.098335-7.596913zM519.804915 455.714795c-11.995125-39.284035-9.196263-64.07396-6.897197-84.065835 0.399838-3.598538 0.799675-6.997156 1.099553-10.395776 0.299878-3.298659-2.199106-6.297441-5.497766-6.597318-3.298659-0.299878-6.297441 2.199106-6.597319 5.497765-0.299878 3.1987-0.699716 6.597319-1.099553 10.095897-2.399025 21.091428-5.397806 47.280785 7.297035 88.963845 0.799675 2.698903 3.498578 4.498172 6.197481 4.298253 0.499797 0 0.899634-0.099959 1.399431-0.299878 3.298659-0.899634 5.097928-4.298253 4.098335-7.496953z m-18.592444 189.622936c0.099959 0.499797 0.299878 0.899634 0.499797 1.299472 1.199513 2.498984 3.998375 3.898416 6.797237 3.1987 42.482735-9.796019 63.674122-25.489641 80.767176-38.184482 2.798863-2.099147 5.497766-4.098334 8.196669-5.997563 2.698903-1.899228 3.398619-5.697684 1.49939-8.396587s-5.697684-3.398619-8.396587-1.499391-5.497766 3.998375-8.396588 6.097522c-16.09346 11.995125-36.185294 26.889072-76.269004 36.085335-3.398619 0.799675-5.497766 4.098334-4.69809 7.396994z m129.447391-166.332402c-1.899228-2.698903-5.697684-3.398619-8.396587-1.49939s-5.497766 3.998375-8.396588 6.097522c-16.09346 11.995125-36.185294 26.889072-76.269003 36.085334-3.298659 0.699716-5.297847 3.998375-4.498172 7.297035 0.099959 0.499797 0.299878 0.899634 0.499796 1.299472 1.199513 2.498984 3.998375 3.898416 6.797238 3.1987 42.482735-9.796019 63.674122-25.489641 80.767176-38.184482 2.798863-2.099147 5.497766-4.098334 8.196669-5.997563 2.598944-1.799269 3.1987-5.597725 1.299471-8.296628z" fill="#FFFFFF" p-id="2660"></path><path d="M303.792703 763.689632c-6.797238 5.397806-7.896791 15.393744-2.498984 22.190981 0.999594 1.299472 2.199106 2.399025 3.498578 3.29866 11.495328-15.293785 20.991469-31.987 28.388463-49.879729-12.394963 10.695653-22.890697 19.29216-29.388057 24.390088zM349.973935 654.034196c0-58.976032-22.690778-112.654217-59.875666-152.837885-17.792769 80.467298 2.898822 160.734676 48.08046 225.008555 7.596913-22.590819 11.795206-46.880947 11.795206-72.17067z" fill="#10E396" opacity=".5" p-id="2661"></path></svg>