<?xml version="1.0" standalone="no"?><!DOCTYPE svg PUBLIC "-//W3C//DTD SVG 1.1//EN" "http://www.w3.org/Graphics/SVG/1.1/DTD/svg11.dtd"><svg t="1693624795828" class="icon" viewBox="0 0 1025 1024" version="1.1" xmlns="http://www.w3.org/2000/svg" p-id="2807" xmlns:xlink="http://www.w3.org/1999/xlink" width="200.1953125" height="200"><path d="M427.109321 1.59779h170.364392C710.816962-0.898757 833.647092 33.853182 911.139922 113.842559c80.089239 77.49283 114.741316 200.32296 112.344631 313.66621v170.364391c2.396685 113.34325-32.255392 236.17338-112.344631 313.66621-77.49283 80.089239-200.32296 114.741316-313.666209 112.34463H427.109321c-113.34325 2.396685-236.17338-32.255392-313.666209-112.34463C33.353873 834.146402-1.298205 711.316272 1.098481 597.973022V427.608631C-1.298205 314.165519 33.353873 191.335389 113.443112 113.842559 190.935942 33.853182 313.766071-0.898757 427.109321 1.59779z" fill="#576FFF" p-id="2808"></path><path d="M112.444493 112.84394C36.849039 186.042709 1.697652 299.585682 0.099862 407.436528c137.809414 0 249.554873-111.845321 249.554873-249.654735 0-42.740891-10.785085-82.985234-29.658982-118.136621-40.543929 17.875279-77.49283 42.141719-107.55126 73.198768z" fill="#FFFFFF" opacity=".5" p-id="2809"></path><path d="M669.374276 710.117929c10.785085 18.774036 4.793371 42.940614-12.68246 55.223628l-15.77818 11.184532c-17.475831 12.283013-42.341443 10.086051-56.721555-6.2913L430.804211 593.279513c-1.997238-2.196962-3.794752-4.493785-5.592266-6.790609-58.219484 5.79199-117.936897-18.574312-154.286626-69.304154-53.925423-75.196006-36.150006-179.451824 39.54531-232.877937 75.795178-53.426113 180.949752-35.85042 234.875175 39.245724 38.446829 53.525975 40.444067 121.831511 10.984808 176.056519 0.699033 1.198343 1.497928 2.296824 2.0971 3.395305l110.946564 207.113568z m-297.588444-312.967176c-7.689366-10.785085-22.768512-13.281632-33.553597-5.592266-10.785085 7.589504-13.381494 22.568788-5.692128 33.254011 7.689366 10.785085 22.768512 13.281632 33.553597 5.592266 10.884946-7.689366 13.381494-22.568788 5.692128-33.254011z m11.983427 98.863275c7.689366 10.785085 22.768512 13.281632 33.553597 5.592266s13.381494-22.568788 5.692127-33.254011c-7.689366-10.785085-22.768512-13.281632-33.553596-5.592266-10.884946 7.689366-13.381494 22.568788-5.692128 33.254011z m59.917137-149.593117c-7.689366-10.785085-22.768512-13.281632-33.553597-5.592266-10.785085 7.589504-13.381494 22.568788-5.692128 33.25401 7.689366 10.785085 22.768512 13.281632 33.553597 5.592266 10.884946-7.689366 13.381494-22.568788 5.692128-33.25401z m51.129289 71.301392c-7.689366-10.685223-22.768512-13.281632-33.553596-5.592266-10.785085 7.589504-13.381494 22.568788-5.692128 33.254011 7.689366 10.785085 22.768512 13.281632 33.553596 5.592266s13.381494-22.568788 5.692128-33.254011z" fill="#FFFFFF" p-id="2810"></path><path d="M684.153837 800.093496c-0.898757 0-1.697652 0-2.59641-0.099862-25.564645-1.398067-43.340062-22.16934-55.223627-35.950282-2.296824-2.696271-4.393923-5.192818-5.891852-6.690747-7.589504-7.589504-7.589504-19.772655 0-27.362159 7.589504-7.589504 19.772655-7.589504 27.362159 0 2.496547 2.496547 5.192818 5.592266 7.988952 8.887709 7.090194 8.188675 18.873898 21.969617 27.861468 22.468926 3.595028 0.199724 7.789228-1.997238 12.682461-6.590885 6.690747-6.291299 14.879422-14.879422 23.567407-23.866993 43.040476-44.738129 73.29863-73.698078 100.361203-69.903326 10.385637 1.497928 19.073622 7.689366 24.266441 17.675555 4.993095 9.387018 1.398067 21.170722-8.088814 26.163817-8.188675 4.294061-17.975141 2.196962-23.767131-4.493786-3.595028 1.497928-10.884946 5.592266-23.467545 16.676937-13.481356 11.783704-28.360778 27.262297-41.542548 40.843514-8.98757 9.387018-17.575693 18.174865-24.965473 25.165198-11.983427 11.384256-24.965474 17.076384-38.546691 17.076384z" fill="#FFFFFF" p-id="2811"></path><path d="M690.14555 759.649429c-2.396685 1.298205-4.493785 1.997238-6.491023 1.897376-4.693509-0.199724-10.086051-3.994476-15.179008-8.787847 3.495166-5.692128 5.492404-12.083289 6.091576-18.674174-28.161054-37.647934-73.198768-62.014236-123.928611-62.014237-15.878041 0-31.256773 2.396685-45.736747 6.890471l79.190482 91.373633c13.780941 15.678317 37.348348 18.374589 54.624456 7.589504 10.884946 10.884946 24.965474 21.270583 42.74089 22.169341 0.898757 0 1.697652 0.099862 2.59641 0.099862 6.191437 0 12.283013-1.198343 18.274726-3.595029-2.496547-13.081908-6.690747-25.364921-12.183151-36.9489z" fill="#576FFF" opacity=".4" p-id="2812"></path></svg>